<svg xmlns="http://www.w3.org/2000/svg" xmlns:xlink="http://www.w3.org/1999/xlink" xmlns:serif="http://www.serif.com/" width="100%" height="100%" viewBox="0 0 934 156" version="1.1" xml:space="preserve" style="fill-rule:evenodd;clip-rule:evenodd;stroke-linejoin:round;stroke-miterlimit:2;">
    <g id="Artboard1" transform="matrix(0.931083,0,0,0.491071,-22.1455,0.597843)">
        <rect x="23.785" y="-1.217" width="1002.33" height="315.783" style="fill:none;"/>
        <g transform="matrix(1.07402,0,0,2.03636,-4.30968,-159.063)">
            <g transform="matrix(0.89788,0,0,0.89788,35.7572,12.8209)">
                <path d="M364.56,110.51L364.56,206.29L337.47,206.29L337.47,168.94L300.53,168.94L300.53,206.29L273.44,206.29L273.44,110.51L300.53,110.51L300.53,146.51L337.47,146.51L337.47,110.51L364.56,110.51Z" style="fill:white;fill-rule:nonzero;"/>
                <path d="M435,172L435,206.34L407.93,206.34L407.93,171.54L371.4,110.54L400,110.54L422.71,148.54L445.42,110.54L471.69,110.54L435,172Z" style="fill:white;fill-rule:nonzero;"/>
                <path d="M564.46,146C564.46,167.76 548.04,181.3 521.9,181.3L505.21,181.3L505.21,206.3L478.12,206.3L478.12,110.51L521.9,110.51C548,110.51 564.46,124.06 564.46,146ZM537.09,146C537.09,137.1 531.48,131.91 520.26,131.91L505.21,131.91L505.21,159.91L520.26,159.91C531.48,159.91 537.09,154.71 537.09,146Z" style="fill:white;fill-rule:nonzero;"/>
                <path d="M654.49,185.36L654.49,206.29L577.59,206.29L577.59,110.51L652.71,110.51L652.71,131.44L604.41,131.44L604.41,147.59L647,147.59L647,167.84L604.41,167.84L604.41,185.36L654.49,185.36Z" style="fill:white;fill-rule:nonzero;"/>
                <path d="M711.4,180.84L696.62,180.84L696.62,206.29L669.53,206.29L669.53,110.51L713.32,110.51C739.45,110.51 755.87,124.06 755.87,145.95C755.87,160.04 749.03,170.44 737.13,176.19L757.79,206.29L728.79,206.29L711.4,180.84ZM711.67,131.84L696.67,131.84L696.67,159.84L711.67,159.84C722.9,159.84 728.51,154.64 728.51,145.84C728.51,137.04 722.9,131.86 711.67,131.86L711.67,131.84Z" style="fill:white;fill-rule:nonzero;"/>
                <rect x="770.78" y="110.51" width="27.09" height="95.78" style="fill:white;"/>
                <path d="M812.23,158.4C812.23,129.67 834.81,108.6 865.46,108.6C896.11,108.6 918.69,129.67 918.69,158.4C918.69,187.13 896.11,208.21 865.46,208.21C834.81,208.21 812.23,187.13 812.23,158.4ZM891.32,158.4C891.32,141.84 879.96,131.03 865.46,131.03C850.96,131.03 839.6,141.84 839.6,158.4C839.6,174.96 850.96,185.77 865.46,185.77C879.96,185.77 891.32,175 891.32,158.4Z" style="fill:white;fill-rule:nonzero;"/>
                <path d="M1024,110.51L1024,206.29L1001.69,206.29L959.41,155.29L959.41,206.29L932.91,206.29L932.91,110.51L955.21,110.51L997.49,161.51L997.49,110.51L1024,110.51Z" style="fill:white;fill-rule:nonzero;"/>
            </g>
            <g transform="matrix(0.83366,0,0,0.83366,160.949,89.2553)">
                <path d="M0,157.481C3.719,158.484 7.623,156.624 9.179,153.103L31.217,103.567C31.744,102.394 32.918,101.628 34.21,101.628L34.21,101.616L95.715,101.616L92.224,84.313L25.717,84.313C24.333,84.313 23.066,85.104 22.446,86.357L15.127,101.273L25.968,-0.37C26.416,-4.589 23.396,-8.467 19.057,-8.968C15.391,-9.377 11.975,-7.003 10.722,-3.535L-20.679,83.733L-46.291,83.733C-49.232,83.733 -51.935,85.394 -53.267,88.032L-65.058,111.415L-49.126,8.216C-48.454,3.877 -51.526,-0.303 -56.142,-0.765C-59.374,-1.094 -62.446,0.778 -63.924,3.667L-104.623,83.442C-105.19,84.537 -106.323,85.21 -107.537,85.183L-153.126,84.314L-156.618,101.616L-103.594,101.998C-99.505,101.616 -97.778,103.343 -94.52,98.015L-72.034,53.94L-88.045,157.574C-88.559,160.884 -87.069,164.287 -84.141,165.882C-82.915,166.555 -81.622,166.858 -80.356,166.858C-77.481,166.858 -74.738,165.249 -73.379,162.559L-41.503,99.347L-15.206,99.347C-11.909,99.347 -8.968,97.277 -7.847,94.177L3.469,62.71L-5.75,149.093C-6.159,152.931 -3.719,156.479 0,157.481" style="fill:rgb(0,148,210);fill-rule:nonzero;"/>
            </g>
        </g>
    </g>
</svg>
